<svg id="eHf6PMzbW381" xmlns="http://www.w3.org/2000/svg" xmlns:xlink="http://www.w3.org/1999/xlink" viewBox="0 0 16 16" shape-rendering="geometricPrecision" text-rendering="geometricPrecision"><style><![CDATA[#eHf6PMzbW385 {animation: eHf6PMzbW385_c_o 3000ms linear infinite normal forwards}@keyframes eHf6PMzbW385_c_o { 0% {opacity: 1} 33.333333% {opacity: 0} 100% {opacity: 1}} #eHf6PMzbW389_tr {animation: eHf6PMzbW389_tr__tr 3000ms linear infinite normal forwards}@keyframes eHf6PMzbW389_tr__tr { 0% {transform: translate(8px,7.985565px) rotate(0deg)} 100% {transform: translate(8px,7.985565px) rotate(360.000002deg)}}]]></style><defs><linearGradient id="eHf6PMzbW389-stroke" x1="0" y1="0.5" x2="0.5" y2="0.5" spreadMethod="pad" gradientUnits="objectBoundingBox" gradientTransform="translate(0 0)"><stop id="eHf6PMzbW389-stroke-0" offset="0%" stop-color="#009ef7"/><stop id="eHf6PMzbW389-stroke-1" offset="100%" stop-color="rgba(0,158,247,0)"/></linearGradient></defs><g transform="matrix(.3 0 0 0.3 4.22 4.115565)"><path d="M2,9.4c0,1.7,1.1,3.1,2.9,4.1s3.6,1.5,3.6,2.9c0,1.7-1.6,1.8-2.4,1.8-1.5,0-3.3-1.3-3.8-1.7L0.6,19.3c.4.4,2.6,2,5.7,2c3,0,5.8-1.3,5.8-5.2c0-2-1.9-3.6-3.6-4.4-1.7-.7-3.3-1.4-3.3-2.5c0-1,.7-1.6,2-1.6c1.4,0,2.7.8,3.1,1.1L11.6,6c-.4-.3-2.3-1.4-4.7-1.4C4.5,4.5,2,6.4,2,9.4Z" fill="#4a4a4a"/><path d="M19.2,20.8v-6.5h5v-2.9h-5v-3.5h5.4v-2.9h-8.7v12.8c0,1.9,1,2.9,3.3,3Z" fill="#4a4a4a"/></g><g id="eHf6PMzbW385" transform="matrix(.3 0 0 0.3 4.22 4.115565)"><path d="M2,9.4c0,1.7,1.1,3.1,2.9,4.1s3.6,1.5,3.6,2.9c0,1.7-1.6,1.8-2.4,1.8-1.5,0-3.3-1.3-3.8-1.7L0.6,19.3c.4.4,2.6,2,5.7,2c3,0,5.8-1.3,5.8-5.2c0-2-1.9-3.6-3.6-4.4-1.7-.7-3.3-1.4-3.3-2.5c0-1,.7-1.6,2-1.6c1.4,0,2.7.8,3.1,1.1L11.6,6c-.4-.3-2.3-1.4-4.7-1.4C4.5,4.5,2,6.4,2,9.4Z" fill="#009ef7"/><path d="M19.2,20.8v-6.5h5v-2.9h-5v-3.5h5.4v-2.9h-8.7v12.8c0,1.9,1,2.9,3.3,3Z" fill="#009ef7"/></g><ellipse rx="7.5" ry="7.5" transform="translate(8 8)" fill="none" stroke="#d2dbed" stroke-width="0.8"/><g id="eHf6PMzbW389_tr" transform="translate(8,7.985565) rotate(0)"><ellipse rx="7.5" ry="7.5" transform="translate(0,0.014435)" fill="none" stroke="url(#eHf6PMzbW389-stroke)" stroke-width="0.8"/></g></svg>