<svg width="412" height="423" viewBox="0 0 412 423" fill="none" xmlns="http://www.w3.org/2000/svg">
<g clip-path="url(#clip0_1451_4414)">
<path d="M9.13118 353.654C11.5561 353.654 13.7157 354.563 15.6101 356.382C17.4667 358.201 18.4139 360.436 18.4139 363.05V387.791C18.4139 389.951 18.8306 391.997 19.6642 393.892C20.4977 395.824 21.6344 397.491 23.0363 398.893C24.4382 400.295 26.1052 401.431 28.0376 402.265C29.9699 403.098 31.978 403.515 34.1376 403.515C36.1836 403.515 38.1538 403.136 40.0482 402.379C41.9048 401.621 43.5719 400.598 45.0495 399.272C46.4893 397.946 47.6638 396.354 48.4974 394.498C49.3309 392.641 49.7477 390.595 49.7477 388.436V362.861C49.7477 360.512 50.6191 358.428 52.4378 356.533C54.2185 354.677 56.3782 353.692 58.9167 353.578C61.4553 353.578 63.6149 354.487 65.4714 356.306C67.328 358.125 68.2752 360.171 68.351 362.406V387.716C68.351 392.414 67.4416 396.809 65.6609 400.939C63.8801 405.069 61.4553 408.668 58.3484 411.775C55.2415 414.882 51.6421 417.307 47.5123 419.087C43.3824 420.868 38.9495 421.777 34.1376 421.777C29.6289 421.967 25.3096 421.209 21.2176 419.466C17.0878 417.723 13.4505 415.336 10.3057 412.305C7.16098 409.274 4.66034 405.713 2.76591 401.621C0.871483 397.529 -0.0378418 393.247 -0.0378418 388.739V362.861C-0.0378418 360.436 0.833595 358.276 2.57647 356.458C4.31934 354.715 6.51688 353.768 9.13118 353.654Z" fill="black"/>
<path d="M111.809 353.804C114.613 353.804 117.379 354.258 120.031 355.13C122.721 356.039 125.146 357.403 127.419 359.259C131.928 355.622 137.157 353.766 143.181 353.766C146.477 353.766 149.622 354.41 152.691 355.66C155.722 356.91 158.412 358.653 160.723 360.775C163.034 362.935 164.853 365.511 166.217 368.504C167.581 371.497 168.263 374.68 168.263 378.052V413.364C168.263 415.6 167.316 417.57 165.459 419.275C163.565 420.98 161.443 421.813 158.98 421.813C156.556 421.813 154.396 420.904 152.577 419.085C150.759 417.267 149.849 415.107 149.849 412.682V378.507C149.849 376.726 149.205 375.211 147.955 373.998C146.705 372.786 145.113 372.179 143.257 372.179C141.665 372.179 140.188 372.71 138.824 373.809C137.46 374.87 136.778 376.461 136.778 378.507V395.254C136.778 397.792 135.868 399.952 134.05 401.733C132.231 403.513 130.034 404.423 127.495 404.423C125.146 404.423 123.024 403.589 121.168 401.96C119.273 400.331 118.364 398.323 118.364 395.973V378.545C118.288 376.688 117.568 375.135 116.242 373.96C114.916 372.786 113.476 372.217 111.885 372.217C110.104 372.217 108.589 372.824 107.3 374.036C106.05 375.248 105.368 376.802 105.254 378.658V413.516C105.065 415.751 104.118 417.721 102.375 419.351C100.632 420.98 98.5482 421.813 96.1233 421.813C94.7972 421.813 93.5848 421.586 92.486 421.094C91.3493 420.639 90.3642 419.957 89.5307 419.123C88.6971 418.29 88.0152 417.305 87.4847 416.168C86.9543 415.031 86.7648 413.857 86.8406 412.644V378.128C86.8406 374.832 87.4847 371.725 88.8108 368.769C90.1369 365.814 91.9177 363.238 94.1531 361.04C96.3885 358.843 99.0407 357.062 102.11 355.774C105.065 354.448 108.323 353.804 111.809 353.804Z" fill="black"/>
<path d="M223.883 353.958C228.089 354.413 232.067 355.663 235.78 357.633C239.494 359.603 242.676 362.104 245.328 365.173C248.018 368.204 250.102 371.69 251.656 375.592C253.209 379.495 253.967 383.587 253.967 387.906V412.799C253.967 415.338 253.02 417.497 251.163 419.278C249.269 421.059 247.185 421.968 244.836 421.968C241.54 421.968 238.925 420.452 236.955 417.459C236.5 417.649 236.046 417.876 235.705 418.103C235.326 418.331 234.947 418.558 234.568 418.747C232.333 419.77 230.021 420.566 227.672 421.134C225.247 421.703 222.671 421.968 219.943 421.968C212.896 421.968 206.644 420.074 201.112 416.285C195.581 412.496 191.451 407.608 188.723 401.584C187.776 399.424 187.056 397.227 186.525 394.991C185.995 392.756 185.768 390.407 185.768 387.944C185.768 385.519 186.033 383.17 186.525 380.897C187.056 378.661 187.776 376.464 188.723 374.304C191.451 368.204 195.581 363.279 201.112 359.528C206.644 355.777 212.934 353.92 219.943 353.92C220.701 353.92 221.383 353.92 221.989 353.92C222.595 353.807 223.201 353.844 223.883 353.958ZM219.791 403.592C221.951 403.592 223.997 403.213 225.892 402.38C227.824 401.584 229.491 400.485 230.893 399.083C232.295 397.681 233.431 396.014 234.265 394.082C235.098 392.15 235.515 390.066 235.515 387.83C235.515 385.784 235.098 383.776 234.265 381.844C233.431 379.912 232.257 378.245 230.817 376.767C229.377 375.327 227.672 374.153 225.74 373.319C223.808 372.486 221.837 372.069 219.754 372.069C217.708 372.069 215.737 372.486 213.843 373.319C211.949 374.153 210.319 375.327 208.842 376.767C207.402 378.207 206.227 379.912 205.394 381.844C204.56 383.776 204.144 385.747 204.144 387.83C204.144 389.99 204.598 392.036 205.47 393.93C206.341 395.863 207.516 397.53 208.993 398.932C210.433 400.334 212.1 401.47 213.995 402.304C215.889 403.175 217.821 403.592 219.791 403.592Z" fill="black"/>
<path d="M290.226 412.306C290.226 414.92 289.279 417.193 287.423 419.05C285.528 420.944 283.255 421.854 280.527 421.854C277.912 421.854 275.677 420.906 273.858 419.05C272.04 417.193 271.13 414.92 271.13 412.306C271.13 409.691 272.04 407.418 273.858 405.562C275.677 403.705 277.912 402.758 280.527 402.758C283.255 402.758 285.528 403.705 287.423 405.562C289.317 407.418 290.226 409.691 290.226 412.306Z" fill="black"/>
<path d="M317.241 332.703C319.666 332.703 321.75 333.612 323.492 335.431C325.235 337.25 326.107 339.409 326.107 341.834C326.107 344.259 325.235 346.419 323.492 348.237C321.75 350.056 319.666 350.965 317.241 350.965C314.513 350.89 312.277 350.018 310.572 348.351C308.83 346.722 307.958 344.373 307.958 341.38C308.034 338.955 309.019 336.871 310.838 335.204C312.656 333.537 314.816 332.703 317.241 332.703ZM317.241 354.224C319.666 354.224 321.712 355.133 323.341 356.914C324.97 358.695 325.879 360.854 326.069 363.393V413.178C326.069 415.717 325.273 417.801 323.682 419.506C322.091 421.211 319.931 422.12 317.203 422.31C314.778 422.31 312.694 421.552 311.027 420.074C309.322 418.559 308.299 416.475 307.92 413.747V362.787C308.11 360.362 309.095 358.316 310.876 356.724C312.694 355.171 314.816 354.337 317.241 354.224Z" fill="black"/>
<path d="M377.976 353.656C382.561 353.656 386.918 354.566 391.048 356.346C395.177 358.127 398.777 360.552 401.884 363.659C404.991 366.766 407.453 370.365 409.272 374.495C411.091 378.625 412 383.058 412 387.87C412 392.568 411.091 396.925 409.31 401.017C407.529 405.109 405.104 408.67 402.073 411.777C399.042 414.884 395.443 417.309 391.313 419.09C387.183 420.87 382.75 421.78 377.938 421.78C373.24 421.78 368.845 420.946 364.715 419.241C360.585 417.536 356.986 415.187 353.879 412.156C350.772 409.125 348.347 405.526 346.567 401.396C344.786 397.266 343.876 392.757 343.876 387.907C343.876 383.209 344.748 378.852 346.491 374.76C348.234 370.668 350.621 367.107 353.652 364.076C356.683 361.045 360.32 358.582 364.488 356.763C368.731 354.869 373.202 353.846 377.976 353.656ZM377.976 372.07C375.816 372.07 373.808 372.487 371.914 373.283C370.019 374.078 368.39 375.177 366.913 376.579C365.473 377.981 364.298 379.648 363.465 381.58C362.631 383.512 362.214 385.596 362.214 387.832C362.214 389.991 362.631 392.037 363.465 393.932C364.298 395.864 365.473 397.531 366.913 399.009C368.352 400.449 370.019 401.623 371.914 402.457C373.77 403.29 375.816 403.707 377.976 403.707C380.136 403.707 382.182 403.29 384.076 402.457C386.008 401.623 387.676 400.449 389.077 399.009C390.479 397.569 391.616 395.864 392.45 393.932C393.283 391.999 393.7 389.991 393.7 387.832C393.51 383.512 391.957 379.875 389.077 376.882C386.198 373.851 382.485 372.26 377.976 372.07Z" fill="black"/>
<path d="M268.099 177.469V178.795C268.099 179.25 268.099 179.666 268.061 180.083C268.061 180.348 268.061 180.613 268.061 180.879C268.061 181.523 268.061 182.167 268.061 182.849C268.061 183.417 268.061 184.023 268.061 184.554C268.061 184.668 268.061 184.781 268.061 184.895C268.061 185.312 268.061 185.728 268.061 186.145C268.061 186.827 268.061 187.509 268.024 188.191C267.986 189.29 267.948 190.389 267.91 191.488C267.834 193.761 267.758 195.996 267.645 198.194C267.531 200.543 267.379 202.854 267.266 205.089C267.19 205.999 267.152 206.908 267.076 207.817C267.001 208.727 266.925 209.598 266.887 210.47C266.849 211.038 266.811 211.531 266.773 212.061C266.735 212.516 266.697 212.932 266.66 213.387C266.546 214.713 266.394 216.001 266.281 217.252C266.015 219.601 265.788 221.874 265.523 224.11C265.371 225.208 265.22 226.269 265.106 227.33C264.955 228.543 264.765 229.755 264.614 230.967C264.5 231.763 264.386 232.559 264.273 233.316C264.159 234.188 264.007 235.021 263.856 235.893C263.591 237.56 263.325 239.227 262.984 240.818C262.719 242.182 262.454 243.508 262.189 244.835C260.825 251.655 259.233 258.02 257.49 263.855C257.263 264.612 257.036 265.408 256.771 266.166C256.468 267.113 256.202 268.022 255.899 268.894C255.71 269.462 255.52 270.03 255.331 270.599C254.611 272.645 253.929 274.577 253.171 276.472C252.944 277.04 252.717 277.608 252.489 278.176C251.694 280.109 250.936 281.965 250.102 283.746C249.837 284.39 249.534 284.996 249.231 285.641C248.89 286.36 248.511 287.08 248.17 287.762C247.943 288.217 247.753 288.634 247.526 289.051C247.185 289.695 246.882 290.301 246.541 290.907C245.972 291.93 245.442 292.877 244.874 293.862C244.646 294.279 244.381 294.658 244.154 295.075C243.472 296.136 242.828 297.159 242.184 298.144C241.843 298.636 241.539 299.129 241.161 299.621C239.115 302.577 236.955 305.153 234.757 307.464C234.265 307.957 233.772 308.449 233.28 308.942C232.977 309.207 232.711 309.435 232.446 309.7C232.029 310.079 231.613 310.42 231.234 310.761C230.59 311.291 229.983 311.784 229.339 312.276C228.998 312.541 228.695 312.769 228.354 313.034C225.816 314.853 223.239 316.292 220.625 317.315C220.17 317.505 219.678 317.694 219.223 317.846C218.92 317.922 218.655 317.997 218.39 318.111C217.859 318.3 217.367 318.414 216.836 318.566C216.154 318.717 215.51 318.869 214.828 319.02C214.298 319.096 213.767 319.172 213.199 319.248C212.896 319.286 212.593 319.323 212.327 319.323C211.835 319.361 211.342 319.399 210.85 319.437H210.66C210.243 319.437 209.827 319.399 209.41 319.399H209.372C209.22 319.399 209.069 319.399 208.917 319.399C208.463 319.399 208.046 319.361 207.591 319.323C207.553 319.323 207.553 319.323 207.516 319.323C207.364 319.323 207.175 319.286 207.023 319.286C206.947 319.286 206.834 319.286 206.758 319.248C206.72 319.248 206.682 319.248 206.644 319.248C206.53 319.248 206.379 319.21 206.265 319.21C206.189 319.21 206.114 319.21 206.076 319.172C205.848 319.134 205.621 319.096 205.394 319.058C204.788 318.945 204.219 318.831 203.613 318.679C203.575 318.679 203.499 318.679 203.461 318.641C203.196 318.566 202.969 318.528 202.742 318.452C202.438 318.376 202.173 318.3 201.87 318.225C201.453 318.111 201.037 317.959 200.62 317.808C200.279 317.694 199.938 317.581 199.597 317.429C199.294 317.315 198.991 317.164 198.65 317.05C198.271 316.899 197.892 316.709 197.513 316.52C197.361 316.444 197.21 316.368 197.058 316.292C196.907 316.217 196.755 316.141 196.604 316.065C196.49 315.989 196.338 315.913 196.225 315.876C195.922 315.724 195.619 315.535 195.278 315.345C194.899 315.118 194.52 314.89 194.179 314.663C193.914 314.512 193.648 314.322 193.383 314.171C193.345 314.133 193.307 314.133 193.269 314.095C193.156 314.019 193.042 313.943 192.966 313.868C192.625 313.64 192.322 313.413 191.981 313.185C191.64 312.958 191.337 312.693 190.996 312.428C190.958 312.39 190.92 312.39 190.882 312.352C190.541 312.087 190.163 311.784 189.822 311.518C189.632 311.367 189.443 311.215 189.291 311.064C189.102 310.912 188.912 310.761 188.761 310.609C188.382 310.306 188.041 309.965 187.7 309.662C187.321 309.321 186.98 308.98 186.639 308.639C186.298 308.298 185.919 307.919 185.578 307.578C185.237 307.237 184.896 306.858 184.555 306.479C184.328 306.214 184.1 305.987 183.835 305.721C183.002 304.774 182.206 303.827 181.41 302.804C180.766 301.97 180.084 301.099 179.44 300.19C179.099 299.735 178.796 299.243 178.455 298.788C178.114 298.295 177.811 297.841 177.47 297.31C177.129 296.818 176.826 296.325 176.523 295.795C176.22 295.302 175.879 294.772 175.575 294.241C175.272 293.711 174.931 293.18 174.628 292.65C174.325 292.157 174.06 291.665 173.795 291.134C173.529 290.642 173.226 290.111 172.961 289.581C172.734 289.164 172.544 288.747 172.317 288.331C172.128 287.952 171.938 287.611 171.749 287.194C171.483 286.701 171.256 286.209 171.029 285.678C170.764 285.11 170.498 284.542 170.233 283.973C169.93 283.291 169.627 282.609 169.324 281.89C169.21 281.586 169.059 281.283 168.945 280.98C168.831 280.715 168.68 280.412 168.566 280.109C168.566 280.109 168.566 280.071 168.528 280.071C168.49 280.033 168.49 279.957 168.452 279.919C168.187 279.275 167.922 278.631 167.657 277.949C167.619 277.873 167.581 277.798 167.581 277.722C167.316 277.078 167.088 276.472 166.823 275.827C166.785 275.752 166.785 275.714 166.747 275.638C166.558 275.183 166.369 274.691 166.217 274.198C166.065 273.781 165.914 273.403 165.762 272.986C165.573 272.455 165.346 271.887 165.156 271.319C164.967 270.788 164.815 270.296 164.626 269.765C164.55 269.576 164.512 269.386 164.436 269.197V269.159C164.247 268.591 164.057 268.022 163.868 267.416C163.565 266.507 163.3 265.597 162.996 264.65C162.845 264.12 162.655 263.552 162.504 262.983C162.466 262.87 162.428 262.756 162.428 262.642C162.277 262.074 162.087 261.543 161.936 260.975C161.784 260.369 161.595 259.763 161.443 259.156C161.291 258.626 161.178 258.096 161.026 257.565C160.875 256.921 160.685 256.277 160.534 255.633C160.344 254.837 160.117 254.004 159.928 253.208C159.89 253.018 159.852 252.829 159.814 252.64C159.624 251.806 159.397 250.935 159.208 250.063C159.018 249.192 158.829 248.32 158.639 247.411C158.488 246.653 158.298 245.858 158.147 245.062V245.024C158.109 244.872 158.071 244.721 158.071 244.569C157.919 243.736 157.73 242.864 157.578 241.993C157.465 241.349 157.351 240.705 157.237 240.061C157.2 239.871 157.162 239.682 157.124 239.492C156.934 238.469 156.745 237.408 156.593 236.385C156.442 235.438 156.29 234.453 156.139 233.506C155.987 232.521 155.836 231.536 155.684 230.551C155.57 229.793 155.457 229.073 155.381 228.315C155.191 226.8 154.964 225.284 154.775 223.769C154.699 223.011 154.585 222.215 154.509 221.457C154.396 220.472 154.282 219.487 154.168 218.464C154.131 218.047 154.093 217.631 154.055 217.252C153.979 216.532 153.903 215.85 153.865 215.13C153.79 214.41 153.752 213.69 153.676 212.97C153.6 212.25 153.562 211.531 153.486 210.811C153.411 210.053 153.373 209.295 153.297 208.537C153.221 207.552 153.145 206.567 153.108 205.582C152.994 203.726 152.88 201.869 152.767 200.012C152.729 199.368 152.691 198.762 152.691 198.118C152.653 197.322 152.615 196.489 152.577 195.655C152.539 195.125 152.539 194.594 152.501 194.064C152.463 192.927 152.426 191.753 152.388 190.616C152.35 189.896 152.35 189.138 152.312 188.381C152.274 187.509 152.274 186.676 152.274 185.804C152.274 185.577 152.274 185.35 152.274 185.122C152.274 184.289 152.236 183.493 152.236 182.659C152.236 181.485 152.198 180.31 152.198 179.136C152.426 194.556 156.139 207.287 163.148 217.138C164.929 219.677 166.937 221.988 169.172 224.147C180.349 234.946 195.278 240.288 213.085 240.288C230.893 240.288 244.57 234.908 254.118 224.147C263.098 213.955 267.683 199.406 268.137 180.917C268.061 179.666 268.099 178.568 268.099 177.469Z" fill="url(#paint0_radial_1451_4414)"/>
<path d="M143.787 53.6484C140.263 64.333 135.679 74.6387 130.147 84.4139C121.546 99.9103 110.445 113.967 100.821 129.122C99.609 131.055 98.3587 132.873 97.222 134.806L93.8878 140.716C91.5387 144.581 89.7959 148.749 87.7878 152.803C87.3331 153.826 86.8027 154.811 86.348 155.872L85.1735 159.054L82.7865 165.382C81.915 167.466 81.3846 169.663 80.7784 171.861L78.9976 178.415C78.4672 180.651 77.9746 182.886 77.5579 185.16C78.202 185.046 78.8461 184.97 79.5281 184.856C90.6294 127.796 126.813 108.663 144.431 55.3534C144.28 54.7472 144.052 54.1789 143.787 53.6484Z" stroke="url(#paint1_radial_1451_4414)" stroke-miterlimit="10"/>
<path d="M72.3292 0V185.73V194.899C72.3292 203.878 72.9733 212.441 74.2615 220.549C74.4889 208.69 75.4361 196.793 77.6715 185.123C78.0883 182.888 78.5808 180.615 79.1113 178.379L80.892 171.825C81.4983 169.665 82.0287 167.429 82.9001 165.346L85.2871 159.018L86.4617 155.836C86.8784 154.813 87.4089 153.79 87.9014 152.767C89.8716 148.713 91.6145 144.545 94.0015 140.68L97.3357 134.77C98.4723 132.837 99.7226 130.981 100.935 129.086C110.559 113.931 121.622 99.9121 130.261 84.3778C135.83 74.6025 140.377 64.2968 143.901 53.6123C131.019 23.794 104.042 2.50064 72.3292 0Z" fill="url(#paint2_radial_1451_4414)"/>
<path d="M174.666 304.741C170.65 299.398 167.543 293.563 164.891 287.615C162.239 281.704 160.951 279.279 158.526 272.497C148.713 244.877 149.849 198.88 149.849 198.88C149.849 197.857 149.811 196.834 149.811 195.773C149.811 195.356 149.811 194.902 149.811 194.447V112.418V83.2063C149.811 73.7341 148.068 64.2999 144.507 55.5098C144.469 55.434 144.469 55.3961 144.431 55.3203C126.813 108.592 90.6294 127.763 79.5281 184.823C76.9138 198.198 75.7013 213.619 76.4212 232.032C81.7256 253.705 92.0313 271.815 107.566 286.213C126.927 304.21 153.865 314.933 188.23 318.229C182.85 314.478 178.417 309.742 174.666 304.741Z" fill="url(#paint3_radial_1451_4414)"/>
<path d="M276.511 53.6484C280.034 64.333 284.619 74.6387 290.15 84.4139C298.751 99.9103 309.852 113.967 319.476 129.122C320.689 131.055 321.939 132.873 323.076 134.806L326.41 140.716C328.759 144.581 330.502 148.749 332.51 152.803C332.964 153.826 333.495 154.811 333.95 155.872L335.124 159.054L337.511 165.382C338.383 167.466 338.913 169.663 339.519 171.861L341.3 178.415C341.83 180.651 342.323 182.886 342.74 185.16C342.096 185.046 341.452 184.97 340.77 184.856C329.63 127.758 293.409 108.587 275.829 55.2776C276.056 54.7472 276.283 54.1789 276.511 53.6484Z" stroke="url(#paint4_radial_1451_4414)" stroke-miterlimit="10"/>
<path d="M348.006 0V185.73V194.899C348.006 203.878 347.362 212.441 346.074 220.549C345.847 208.69 344.899 196.793 342.664 185.123C342.247 182.888 341.755 180.615 341.224 178.379L339.443 171.825C338.837 169.665 338.307 167.429 337.435 165.346L335.048 159.018L333.874 155.836C333.457 154.813 332.927 153.79 332.434 152.767C330.464 148.713 328.721 144.545 326.334 140.68L323 134.77C321.863 132.837 320.613 130.981 319.4 129.086C309.777 113.931 298.713 99.9121 290.075 84.3778C284.505 74.6025 279.958 64.2968 276.435 53.6123C289.317 23.794 316.256 2.50064 348.006 0Z" fill="url(#paint5_radial_1451_4414)"/>
<path d="M245.631 304.741C249.648 299.398 252.754 293.563 255.407 287.615C258.059 281.704 259.347 279.279 261.772 272.497C271.585 244.877 270.448 198.88 270.448 198.88C270.448 197.857 270.486 196.834 270.486 195.773C270.486 195.356 270.486 194.902 270.486 194.447V112.418V83.2063C270.486 73.7341 272.229 64.2999 275.791 55.5098C275.829 55.434 275.829 55.3961 275.866 55.3203C293.485 108.592 329.668 127.763 340.77 184.823C343.384 198.198 344.596 213.619 343.876 232.032C338.572 253.705 328.266 271.815 312.732 286.213C293.295 304.21 266.356 314.97 231.992 318.267C237.485 314.478 241.918 309.742 245.631 304.741Z" fill="url(#paint6_radial_1451_4414)"/>
</g>
<defs>
<radialGradient id="paint0_radial_1451_4414" cx="0" cy="0" r="1" gradientUnits="userSpaceOnUse" gradientTransform="translate(361.113 270.971) scale(270.124 319.334)">
<stop stop-color="#DCB7D5"/>
<stop offset="1" stop-color="#A08CC7"/>
</radialGradient>
<radialGradient id="paint1_radial_1451_4414" cx="0" cy="0" r="1" gradientUnits="userSpaceOnUse" gradientTransform="translate(65.98 85.2666) scale(85.9785 93.321)">
<stop stop-color="#DCB7D5"/>
<stop offset="1" stop-color="#A08CC7"/>
</radialGradient>
<radialGradient id="paint2_radial_1451_4414" cx="0" cy="0" r="1" gradientUnits="userSpaceOnUse" gradientTransform="translate(110.996 98.0316) scale(118.719 118.719)">
<stop stop-color="#DCB7D5"/>
<stop offset="1" stop-color="#A08CC7"/>
</radialGradient>
<radialGradient id="paint3_radial_1451_4414" cx="0" cy="0" r="1" gradientUnits="userSpaceOnUse" gradientTransform="translate(160.307 301.692) scale(180.877 180.877)">
<stop stop-color="#DCB7D5"/>
<stop offset="1" stop-color="#A08CC7"/>
</radialGradient>
<radialGradient id="paint4_radial_1451_4414" cx="0" cy="0" r="1" gradientUnits="userSpaceOnUse" gradientTransform="translate(354.332 85.2666) rotate(180) scale(85.9784 93.321)">
<stop stop-color="#DCB7D5"/>
<stop offset="1" stop-color="#A08CC7"/>
</radialGradient>
<radialGradient id="paint5_radial_1451_4414" cx="0" cy="0" r="1" gradientUnits="userSpaceOnUse" gradientTransform="translate(309.315 98.0316) rotate(180) scale(118.719 118.719)">
<stop stop-color="#DCB7D5"/>
<stop offset="1" stop-color="#A08CC7"/>
</radialGradient>
<radialGradient id="paint6_radial_1451_4414" cx="0" cy="0" r="1" gradientUnits="userSpaceOnUse" gradientTransform="translate(260.005 301.692) rotate(180) scale(180.877 180.877)">
<stop stop-color="#DCB7D5"/>
<stop offset="1" stop-color="#A08CC7"/>
</radialGradient>
<clipPath id="clip0_1451_4414">
<rect width="412" height="422.268" fill="ble"/>
</clipPath>
</defs>
</svg>
